<?xml version="1.0" encoding="UTF-8" standalone="no"?>
<svg
   width="108"
   height="108"
   viewBox="0 0 48.0 48.0"
   version="1.1"
   id="svg20"
   sodipodi:docname="splash.svg"
   inkscape:version="1.2.2 (732a01da63, 2022-12-09)"
   xmlns:inkscape="http://www.inkscape.org/namespaces/inkscape"
   xmlns:sodipodi="http://sodipodi.sourceforge.net/DTD/sodipodi-0.dtd"
   xmlns="http://www.w3.org/2000/svg"
   xmlns:svg="http://www.w3.org/2000/svg">
  <defs
     id="defs24" />
  <sodipodi:namedview
     id="namedview22"
     pagecolor="#ffffff"
     bordercolor="#000000"
     borderopacity="0.25"
     inkscape:showpageshadow="2"
     inkscape:pageopacity="0.0"
     inkscape:pagecheckerboard="0"
     inkscape:deskcolor="#d1d1d1"
     showgrid="false"
     inkscape:zoom="9.5092593"
     inkscape:cx="37.069133"
     inkscape:cy="54"
     inkscape:window-width="2560"
     inkscape:window-height="1361"
     inkscape:window-x="-9"
     inkscape:window-y="-9"
     inkscape:window-maximized="1"
     inkscape:current-layer="svg20" />
  <g
     transform="translate(11.75,12)"
     id="g18">
    <path
       fill="#aaaaaa"
       d="m 6,19 h 6 V 12 H 6 Z"
       stroke-opacity="0.65"
       fill-opacity="0.75"
       id="path14" />
    <path
       fill="#000000"
       d="M 12,3 H 6 C 4.9,3 4,3.9 4,5 v 16 h 10 v -7.5 h 1.5 v 5 c 0,1.38 1.12,2.5 2.5,2.5 1.38,0 2.5,-1.12 2.5,-2.5 V 9 C 20.5,8.31 20.22,7.68 19.77,7.23 L 19.78,7.22 16.06,3.5 15,4.56 17.11,6.67 C 16.17,7.03 15.5,7.93 15.5,9 c 0,1.38 1.12,2.5 2.5,2.5 0.36,0 0.69,-0.08 1,-0.21 v 7.21 c 0,0.55 -0.45,1 -1,1 -0.55,0 -1,-0.45 -1,-1 V 14 c 0,-1.1 -0.9,-2 -2,-2 H 14 V 5 C 14,3.9 13.1,3 12,3 Z m 0,10.5 V 19 H 6 v -7 h 6 z M 12,10 H 6 V 5 h 6 z m 6,0 c -0.55,0 -1,-0.45 -1,-1 0,-0.55 0.45,-1 1,-1 0.55,0 1,0.45 1,1 0,0.55 -0.45,1 -1,1 z"
       id="path16" />
  </g>
</svg>
